<?xml version="1.0" standalone="no"?>
<!DOCTYPE svg PUBLIC "-//W3C//DTD SVG 20010904//EN"
 "http://www.w3.org/TR/2001/REC-SVG-20010904/DTD/svg10.dtd">
<svg version="1.0" xmlns="http://www.w3.org/2000/svg"
 width="500.000000pt" height="125.000000pt" viewBox="0 0 500.000000 125.000000"
 preserveAspectRatio="xMidYMid meet">

<g transform="translate(0.000000,125.000000) scale(0.100000,-0.100000)"
fill="#000000" stroke="none">
<path d="M229 1089 c-19 -12 -41 -30 -48 -41 -8 -14 -9 -18 -1 -13 6 4 82 22
168 40 l157 33 -120 1 c-104 0 -125 -2 -156 -20z"/>
<path d="M394 1070 c-201 -40 -227 -49 -244 -80 -6 -11 -10 -99 -10 -211 0
-179 2 -204 36 -378 20 -102 40 -193 45 -203 14 -27 98 -38 284 -38 162 0 189
3 382 40 229 44 269 57 283 96 6 14 10 107 10 207 0 170 -3 194 -39 375 -25
126 -44 199 -55 210 -15 15 -47 17 -259 19 l-242 2 -191 -39z m431 -210 c26
-44 45 -86 42 -94 -8 -19 -156 -99 -173 -92 -11 4 -11 11 -4 31 6 15 10 28 10
31 0 2 -26 4 -59 4 -43 0 -65 -5 -83 -20 -31 -24 -38 -18 -38 31 0 72 76 132
167 132 49 0 52 1 58 28 4 16 13 29 20 29 7 0 34 -36 60 -80z m-275 -197 c83
-49 97 -72 51 -83 -14 -3 -26 -10 -28 -16 -6 -19 42 -78 80 -100 36 -20 37
-21 19 -37 -32 -29 -78 -40 -116 -27 -38 12 -116 90 -116 116 0 13 -7 15 -34
10 -20 -4 -37 -2 -41 4 -7 11 83 180 96 180 4 0 44 -21 89 -47z m351 19 c27
-24 33 -37 37 -84 4 -55 -2 -78 -38 -135 -13 -20 -12 -25 9 -47 32 -34 20 -38
-100 -34 l-94 3 -3 90 c-3 110 6 130 42 96 22 -20 28 -22 41 -11 27 22 45 67
45 110 0 49 16 52 61 12z"/>
<path d="M1120 1054 c1 -5 14 -70 29 -144 l29 -135 1 90 c1 102 -10 154 -39
180 -11 10 -20 14 -20 9z"/>
<path d="M1522 945 c-64 -33 -99 -87 -114 -177 -27 -159 54 -285 195 -304 48
-7 146 10 190 32 25 14 27 19 27 79 0 59 2 65 21 65 17 0 20 5 17 38 l-3 37
-117 3 -118 3 0 -41 0 -40 50 0 50 0 0 -39 0 -38 -50 -7 c-71 -9 -115 11 -140
66 -22 48 -25 113 -10 170 29 103 173 121 198 25 8 -30 11 -32 53 -32 l44 0 0
90 0 90 -38 3 c-32 3 -39 0 -44 -17 -6 -25 -11 -26 -35 -4 -10 9 -41 18 -71
20 -42 4 -62 -1 -105 -22z"/>
<path d="M3586 955 c-90 -32 -141 -120 -141 -241 1 -160 112 -269 252 -250
126 17 198 110 198 251 -1 84 -17 135 -58 182 -59 67 -160 91 -251 58z m153
-101 c80 -67 63 -253 -26 -290 -102 -43 -180 57 -158 203 15 100 113 147 184
87z"/>
<path d="M1954 946 c-3 -8 -4 -25 -2 -38 2 -19 10 -23 46 -26 24 -2 42 -8 42
-15 0 -7 -23 -80 -51 -164 -47 -142 -52 -152 -77 -155 -24 -3 -27 -7 -27 -38
l0 -35 102 -3 c95 -2 102 -1 108 18 10 33 -3 60 -31 60 -28 0 -27 -2 -13 39
l11 31 74 0 c71 0 75 -1 84 -26 15 -37 13 -42 -17 -46 -25 -3 -28 -7 -28 -38
l0 -35 102 -3 c91 -2 103 -1 112 16 16 30 3 60 -28 64 -24 3 -29 13 -73 148
-25 80 -55 170 -65 200 l-18 55 -123 3 c-100 2 -123 0 -128 -12z m210 -153 c9
-34 19 -69 22 -78 5 -12 -4 -15 -49 -15 l-54 0 25 90 c15 53 29 85 33 78 4 -7
14 -41 23 -75z"/>
<path d="M2424 946 c-3 -8 -4 -25 -2 -38 2 -18 10 -24 36 -26 l32 -3 0 -165 0
-164 -36 0 c-35 0 -35 -1 -32 -37 l3 -38 112 -3 c105 -2 112 -1 118 18 11 35
-3 60 -36 60 -29 0 -29 1 -29 55 l0 55 34 0 c39 0 65 -27 109 -116 29 -57 63
-78 118 -72 31 3 34 6 37 41 3 31 0 37 -16 37 -22 0 -39 18 -76 83 -15 26 -31
47 -36 47 -21 0 -8 18 20 30 57 24 79 119 43 181 -33 56 -81 69 -246 69 -119
0 -149 -3 -153 -14z m297 -92 c25 -22 24 -59 -1 -84 -15 -15 -33 -20 -75 -20
l-55 0 0 66 0 67 56 -6 c32 -3 64 -13 75 -23z"/>
<path d="M2935 940 c-11 -35 3 -60 36 -60 l29 0 0 -165 0 -165 -29 0 c-33 0
-47 -25 -36 -61 7 -20 12 -21 168 -17 134 3 169 6 200 22 46 23 67 60 67 120
0 47 -32 99 -69 111 -17 5 -16 8 10 35 56 56 32 153 -47 186 -23 10 -78 14
-178 14 -136 0 -145 -1 -151 -20z m291 -81 c17 -14 18 -61 2 -77 -7 -7 -38
-12 -70 -12 l-58 0 0 48 c0 27 3 52 8 56 10 11 101 -1 118 -15z m30 -204 c19
-26 17 -52 -6 -75 -16 -16 -33 -20 -85 -20 l-65 0 0 53 c0 30 3 57 8 61 4 4
36 6 71 4 47 -3 67 -9 77 -23z"/>
<path d="M141 400 c-1 -94 18 -166 48 -184 6 -4 11 -6 11 -4 0 2 -14 66 -29
143 l-29 140 -1 -95z"/>
<path d="M1128 239 c-10 -5 -93 -25 -185 -44 l-168 -34 135 2 c127 2 138 4
182 29 25 15 48 34 52 43 6 17 6 17 -16 4z"/>
</g>
</svg>
