<svg xmlns="http://www.w3.org/2000/svg" xmlns:xlink="http://www.w3.org/1999/xlink" width="500" zoomAndPan="magnify" viewBox="0 0 375 374.999991" height="500" preserveAspectRatio="xMidYMid meet" version="1.0"><defs><clipPath id="03dec0159e"><path d="M 13 26.15625 L 356 26.15625 L 356 355.085938 L 13 355.085938 Z M 13 26.15625 " clip-rule="nonzero"/></clipPath><clipPath id="cf3a6c45a8"><path d="M 356.050781 49.527344 L 374.945312 49.527344 L 374.945312 65.886719 L 356.050781 65.886719 Z M 356.050781 49.527344 " clip-rule="nonzero"/></clipPath><clipPath id="3749cf8501"><path d="M 322 19.921875 L 345 19.921875 L 345 52 L 322 52 Z M 322 19.921875 " clip-rule="nonzero"/></clipPath><clipPath id="23d2dd498a"><path d="M 349.039062 299.609375 L 374.945312 299.609375 L 374.945312 318 L 349.039062 318 Z M 349.039062 299.609375 " clip-rule="nonzero"/></clipPath></defs><g clip-path="url(#03dec0159e)"><path fill="#f9da78" d="M 242.257812 28.609375 C 236.085938 28.609375 229.90625 29.804688 224.011719 32.203125 L 45.488281 104.78125 C 20.746094 114.839844 8.800781 143.152344 18.855469 167.898438 L 81.765625 322.628906 C 86.636719 334.613281 95.886719 343.988281 107.808594 349.019531 C 119.726562 354.046875 132.894531 354.132812 144.882812 349.257812 L 323.402344 276.683594 C 335.390625 271.8125 344.761719 262.558594 349.792969 250.640625 C 354.824219 238.71875 354.90625 225.550781 350.03125 213.566406 L 287.128906 58.832031 C 282.257812 46.847656 273.003906 37.476562 261.085938 32.445312 C 255.023438 29.886719 248.644531 28.609375 242.257812 28.609375 Z M 126.628906 355.085938 C 119.953125 355.085938 113.28125 353.746094 106.9375 351.074219 C 94.46875 345.8125 84.796875 336.007812 79.699219 323.46875 L 16.789062 168.738281 C 6.265625 142.855469 18.765625 113.234375 44.648438 102.714844 L 223.171875 30.136719 C 235.710938 25.039062 249.484375 25.128906 261.953125 30.390625 C 274.421875 35.652344 284.101562 45.453125 289.195312 57.992188 L 352.101562 212.726562 C 357.199219 225.265625 357.109375 239.039062 351.847656 251.507812 C 346.585938 263.976562 336.78125 273.652344 324.242188 278.75 L 323.824219 277.714844 L 324.242188 278.75 L 145.722656 351.328125 C 139.554688 353.832031 133.089844 355.085938 126.628906 355.085938 " fill-opacity="1" fill-rule="nonzero"/></g><path fill="#f9da78" d="M 82.007812 47.890625 C 81.441406 47.890625 80.957031 47.460938 80.898438 46.886719 C 80.835938 46.273438 81.285156 45.726562 81.898438 45.660156 L 82.5 45.605469 C 83.117188 45.550781 83.65625 46.003906 83.710938 46.617188 C 83.765625 47.230469 83.316406 47.773438 82.703125 47.828125 L 82.121094 47.882812 C 82.082031 47.890625 82.042969 47.890625 82.007812 47.890625 Z M 72.648438 49.574219 C 72.152344 49.574219 71.703125 49.242188 71.574219 48.742188 C 71.414062 48.148438 71.769531 47.535156 72.367188 47.382812 L 72.949219 47.230469 C 73.542969 47.082031 74.152344 47.4375 74.304688 48.039062 C 74.457031 48.636719 74.09375 49.242188 73.5 49.394531 L 72.9375 49.539062 C 72.839844 49.5625 72.742188 49.574219 72.648438 49.574219 Z M 63.679688 52.710938 C 63.246094 52.710938 62.839844 52.464844 62.65625 52.042969 C 62.40625 51.480469 62.660156 50.824219 63.226562 50.574219 L 63.78125 50.332031 C 64.351562 50.09375 65.003906 50.355469 65.246094 50.921875 C 65.488281 51.488281 65.226562 52.140625 64.660156 52.382812 L 64.125 52.617188 C 63.980469 52.683594 63.828125 52.710938 63.679688 52.710938 Z M 55.304688 57.21875 C 54.9375 57.21875 54.578125 57.039062 54.367188 56.707031 C 54.03125 56.1875 54.179688 55.496094 54.699219 55.164062 L 55.207031 54.835938 C 55.730469 54.507812 56.421875 54.667969 56.75 55.1875 C 57.078125 55.707031 56.917969 56.398438 56.398438 56.722656 L 55.90625 57.039062 C 55.71875 57.160156 55.511719 57.21875 55.304688 57.21875 Z M 47.730469 62.972656 C 47.425781 62.972656 47.117188 62.84375 46.898438 62.597656 C 46.488281 62.136719 46.53125 61.433594 46.988281 61.019531 L 47.441406 60.621094 C 47.90625 60.214844 48.613281 60.261719 49.019531 60.730469 C 49.421875 61.195312 49.375 61.898438 48.910156 62.300781 L 48.472656 62.6875 C 48.257812 62.878906 47.992188 62.972656 47.730469 62.972656 Z M 41.140625 69.828125 C 40.890625 69.828125 40.640625 69.746094 40.433594 69.574219 C 39.957031 69.183594 39.886719 68.480469 40.277344 68.003906 L 40.667969 67.535156 C 41.0625 67.066406 41.765625 67.003906 42.238281 67.402344 C 42.710938 67.796875 42.769531 68.5 42.375 68.972656 L 42.003906 69.421875 C 41.78125 69.691406 41.460938 69.828125 41.140625 69.828125 Z M 35.691406 77.628906 C 35.496094 77.628906 35.304688 77.578125 35.125 77.472656 C 34.59375 77.160156 34.417969 76.472656 34.730469 75.945312 L 35.042969 75.425781 C 35.359375 74.894531 36.046875 74.726562 36.570312 75.042969 C 37.101562 75.359375 37.273438 76.046875 36.953125 76.574219 L 36.652344 77.078125 C 36.445312 77.429688 36.074219 77.628906 35.691406 77.628906 " fill-opacity="1" fill-rule="nonzero"/><path fill="#f9da78" d="M 326.832031 314.957031 C 326.570312 314.957031 326.3125 314.871094 326.101562 314.6875 C 325.632812 314.285156 325.582031 313.578125 325.984375 313.113281 L 326.363281 312.667969 C 326.761719 312.203125 327.464844 312.144531 327.933594 312.539062 C 328.40625 312.9375 328.46875 313.640625 328.070312 314.113281 L 327.675781 314.570312 C 327.453125 314.828125 327.144531 314.957031 326.832031 314.957031 Z M 320.082031 321.664062 C 319.765625 321.664062 319.453125 321.527344 319.230469 321.269531 C 318.832031 320.800781 318.890625 320.09375 319.359375 319.695312 L 319.804688 319.316406 C 320.269531 318.910156 320.972656 318.964844 321.378906 319.429688 C 321.78125 319.894531 321.730469 320.597656 321.265625 321.003906 L 320.804688 321.398438 C 320.59375 321.574219 320.339844 321.664062 320.082031 321.664062 Z M 312.378906 327.238281 C 312 327.238281 311.632812 327.046875 311.421875 326.703125 C 311.101562 326.175781 311.269531 325.488281 311.796875 325.167969 L 312.289062 324.863281 C 312.8125 324.539062 313.5 324.695312 313.828125 325.21875 C 314.15625 325.742188 313.996094 326.429688 313.476562 326.757812 L 312.957031 327.078125 C 312.773438 327.1875 312.574219 327.238281 312.378906 327.238281 Z M 303.898438 331.542969 C 303.457031 331.542969 303.042969 331.28125 302.863281 330.851562 C 302.632812 330.28125 302.90625 329.628906 303.472656 329.394531 L 304.007812 329.171875 C 304.578125 328.929688 305.234375 329.195312 305.472656 329.761719 C 305.714844 330.328125 305.453125 330.984375 304.882812 331.222656 L 304.324219 331.460938 C 304.183594 331.515625 304.039062 331.542969 303.898438 331.542969 Z M 294.851562 334.464844 C 294.347656 334.464844 293.890625 334.121094 293.765625 333.609375 C 293.621094 333.011719 293.992188 332.410156 294.59375 332.265625 L 295.160156 332.125 C 295.757812 331.980469 296.363281 332.34375 296.511719 332.941406 C 296.660156 333.539062 296.292969 334.144531 295.695312 334.292969 L 295.109375 334.433594 C 295.023438 334.457031 294.9375 334.464844 294.851562 334.464844 Z M 285.453125 335.929688 C 284.875 335.929688 284.386719 335.484375 284.339844 334.902344 C 284.296875 334.285156 284.753906 333.746094 285.371094 333.703125 L 285.953125 333.652344 C 286.570312 333.605469 287.105469 334.058594 287.160156 334.671875 C 287.210938 335.289062 286.757812 335.824219 286.140625 335.878906 L 285.539062 335.925781 C 285.507812 335.929688 285.480469 335.929688 285.453125 335.929688 Z M 247.96875 336.105469 L 247.371094 336.105469 C 246.757812 336.105469 246.253906 335.605469 246.253906 334.988281 C 246.253906 334.375 246.757812 333.875 247.371094 333.875 L 247.96875 333.875 C 248.582031 333.875 249.082031 334.375 249.082031 334.988281 C 249.082031 335.605469 248.582031 336.105469 247.96875 336.105469 Z M 257.488281 336.105469 L 256.894531 336.105469 C 256.277344 336.105469 255.777344 335.605469 255.777344 334.988281 C 255.777344 334.375 256.277344 333.875 256.894531 333.875 L 257.488281 333.875 C 258.105469 333.875 258.605469 334.375 258.605469 334.988281 C 258.605469 335.605469 258.105469 336.105469 257.488281 336.105469 Z M 267.007812 336.105469 L 266.417969 336.105469 C 265.796875 336.105469 265.300781 335.605469 265.300781 334.988281 C 265.300781 334.375 265.796875 333.875 266.417969 333.875 L 267.007812 333.875 C 267.628906 333.875 268.125 334.375 268.125 334.988281 C 268.125 335.605469 267.628906 336.105469 267.007812 336.105469 Z M 276.53125 336.105469 L 275.9375 336.105469 C 275.320312 336.105469 274.820312 335.605469 274.820312 334.988281 C 274.820312 334.375 275.320312 333.875 275.9375 333.875 L 276.53125 333.875 C 277.148438 333.875 277.648438 334.375 277.648438 334.988281 C 277.648438 335.605469 277.148438 336.105469 276.53125 336.105469 " fill-opacity="1" fill-rule="nonzero"/><path fill="#48752c" d="M 280.800781 323.800781 L 88.089844 323.800781 C 60.71875 323.800781 38.535156 301.617188 38.535156 274.246094 L 38.535156 107.21875 C 38.535156 79.847656 60.71875 57.660156 88.089844 57.660156 L 280.800781 57.660156 C 308.167969 57.660156 330.359375 79.847656 330.359375 107.21875 L 330.359375 274.246094 C 330.359375 301.617188 308.167969 323.800781 280.800781 323.800781 " fill-opacity="1" fill-rule="nonzero"/><path fill="#f9da78" d="M 141.710938 29.277344 C 141.425781 29.277344 141.136719 29.167969 140.917969 28.949219 C 140.488281 28.511719 140.488281 27.804688 140.921875 27.367188 L 142.371094 25.921875 C 142.804688 25.484375 143.511719 25.484375 143.945312 25.921875 C 144.386719 26.359375 144.386719 27.0625 143.945312 27.5 L 142.5 28.949219 C 142.277344 29.167969 141.996094 29.277344 141.710938 29.277344 " fill-opacity="1" fill-rule="nonzero"/><path fill="#f9da78" d="M 131.566406 39.417969 C 131.28125 39.417969 130.996094 39.308594 130.777344 39.089844 C 130.339844 38.65625 130.339844 37.949219 130.777344 37.511719 L 132.226562 36.0625 C 132.664062 35.628906 133.367188 35.628906 133.804688 36.0625 C 134.238281 36.5 134.238281 37.207031 133.804688 37.644531 L 132.355469 39.089844 C 132.140625 39.308594 131.851562 39.417969 131.566406 39.417969 " fill-opacity="1" fill-rule="nonzero"/><path fill="#f9da78" d="M 133.015625 29.277344 C 132.730469 29.277344 132.445312 29.167969 132.226562 28.949219 L 130.777344 27.5 C 130.339844 27.0625 130.339844 26.359375 130.777344 25.921875 C 131.214844 25.484375 131.921875 25.484375 132.355469 25.921875 L 133.804688 27.371094 C 134.238281 27.808594 134.238281 28.511719 133.804688 28.949219 C 133.585938 29.167969 133.300781 29.277344 133.015625 29.277344 " fill-opacity="1" fill-rule="nonzero"/><path fill="#f9da78" d="M 143.160156 39.417969 C 142.871094 39.417969 142.589844 39.308594 142.371094 39.089844 L 140.921875 37.644531 C 140.488281 37.207031 140.488281 36.5 140.921875 36.0625 C 141.355469 35.628906 142.0625 35.628906 142.5 36.0625 L 143.945312 37.511719 C 144.386719 37.949219 144.386719 38.65625 143.945312 39.089844 C 143.730469 39.308594 143.445312 39.417969 143.160156 39.417969 " fill-opacity="1" fill-rule="nonzero"/><path fill="#f9da78" d="M 57.796875 340.679688 C 57.511719 340.679688 57.230469 340.570312 57.011719 340.351562 C 56.574219 339.917969 56.574219 339.210938 57.011719 338.773438 L 58.460938 337.324219 C 58.894531 336.886719 59.601562 336.886719 60.035156 337.324219 C 60.46875 337.761719 60.472656 338.46875 60.035156 338.902344 L 58.585938 340.351562 C 58.371094 340.570312 58.085938 340.679688 57.796875 340.679688 " fill-opacity="1" fill-rule="nonzero"/><path fill="#f9da78" d="M 47.65625 350.820312 C 47.371094 350.820312 47.082031 350.714844 46.867188 350.496094 C 46.433594 350.058594 46.433594 349.351562 46.867188 348.914062 L 48.316406 347.464844 C 48.75 347.03125 49.457031 347.03125 49.894531 347.464844 C 50.332031 347.90625 50.332031 348.609375 49.894531 349.046875 L 48.445312 350.496094 C 48.226562 350.714844 47.941406 350.820312 47.65625 350.820312 " fill-opacity="1" fill-rule="nonzero"/><path fill="#f9da78" d="M 49.105469 340.679688 C 48.820312 340.679688 48.535156 340.570312 48.316406 340.351562 L 46.867188 338.902344 C 46.433594 338.46875 46.433594 337.761719 46.867188 337.324219 C 47.300781 336.886719 48.007812 336.886719 48.445312 337.324219 L 49.894531 338.773438 C 50.332031 339.210938 50.332031 339.917969 49.894531 340.351562 C 49.675781 340.570312 49.390625 340.679688 49.105469 340.679688 " fill-opacity="1" fill-rule="nonzero"/><path fill="#f9da78" d="M 59.246094 350.820312 C 58.960938 350.820312 58.675781 350.714844 58.460938 350.496094 L 57.011719 349.046875 C 56.574219 348.609375 56.574219 347.902344 57.011719 347.464844 C 57.445312 347.03125 58.152344 347.03125 58.585938 347.464844 L 60.035156 348.917969 C 60.472656 349.351562 60.46875 350.058594 60.035156 350.496094 C 59.820312 350.714844 59.535156 350.820312 59.246094 350.820312 " fill-opacity="1" fill-rule="nonzero"/><path fill="#f9da78" d="M 351.804688 137.09375 C 348.304688 137.09375 345.457031 139.9375 345.457031 143.433594 C 345.457031 146.933594 348.304688 149.777344 351.804688 149.777344 C 355.300781 149.777344 358.144531 146.933594 358.144531 143.433594 C 358.144531 139.9375 355.300781 137.09375 351.804688 137.09375 Z M 351.804688 152.011719 C 347.074219 152.011719 343.226562 148.164062 343.226562 143.433594 C 343.226562 138.707031 347.074219 134.863281 351.804688 134.863281 C 356.53125 134.863281 360.375 138.707031 360.375 143.433594 C 360.375 148.164062 356.53125 152.011719 351.804688 152.011719 " fill-opacity="1" fill-rule="nonzero"/><path fill="#f9da78" d="M 263.96875 40.683594 C 260.851562 40.683594 257.710938 40.980469 254.585938 41.585938 L 63.742188 78.503906 C 37.289062 83.625 19.929688 109.3125 25.042969 135.769531 L 57.042969 301.179688 C 61.558594 324.511719 82.078125 340.769531 105.007812 340.769531 C 108.074219 340.769531 111.183594 340.480469 114.304688 339.875 L 305.152344 302.957031 C 317.964844 300.480469 329.050781 293.15625 336.359375 282.339844 C 343.667969 271.523438 346.328125 258.507812 343.847656 245.695312 L 311.847656 80.285156 C 309.367188 67.46875 302.046875 56.386719 291.230469 49.074219 C 283.058594 43.550781 273.621094 40.683594 263.96875 40.683594 Z M 105.003906 343 C 81.027344 343 59.574219 326.003906 54.851562 301.601562 L 22.851562 136.191406 C 17.503906 108.527344 35.65625 81.667969 63.320312 76.316406 L 254.160156 39.394531 C 267.566406 36.804688 281.171875 39.585938 292.480469 47.226562 C 303.789062 54.871094 311.445312 66.460938 314.035156 79.859375 L 346.039062 245.269531 C 348.632812 258.671875 345.847656 272.28125 338.207031 283.589844 C 330.566406 294.898438 318.972656 302.554688 305.574219 305.148438 L 305.359375 304.050781 L 305.574219 305.148438 L 114.730469 342.066406 C 111.464844 342.699219 108.214844 343 105.003906 343 " fill-opacity="1" fill-rule="nonzero"/><g clip-path="url(#cf3a6c45a8)"><path fill="#f9da78" d="M 356.792969 65.714844 L 374.945312 58.746094 L 370.023438 49.621094 Z M 356.792969 65.714844 " fill-opacity="1" fill-rule="nonzero"/></g><g clip-path="url(#3749cf8501)"><path fill="#f9da78" d="M 335.292969 19.925781 L 322.898438 51.242188 L 344.9375 26.546875 Z M 335.292969 19.925781 " fill-opacity="1" fill-rule="nonzero"/></g><g clip-path="url(#23d2dd498a)"><path fill="#f9da78" d="M 349.699219 299.734375 L 372.144531 317.945312 L 374.773438 307.441406 Z M 349.699219 299.734375 " fill-opacity="1" fill-rule="nonzero"/></g><path fill="#f9da78" d="M 24.125 287.910156 L 5.152344 287.40625 L 6.179688 297.476562 Z M 24.125 287.910156 " fill-opacity="1" fill-rule="nonzero"/><path fill="#f9da78" d="M 10.398438 336.734375 L 33.285156 313.125 L 4.171875 327.160156 Z M 10.398438 336.734375 " fill-opacity="1" fill-rule="nonzero"/><path fill="#f9da78" d="M 16.875 91.296875 L 1.941406 78.664062 L 0.015625 85.738281 Z M 16.875 91.296875 " fill-opacity="1" fill-rule="nonzero"/><path fill="#f9da78" d="M 192.023438 244.054688 C 162.828125 237.511719 159.511719 213.492188 159.144531 208.738281 L 173.679688 204.839844 C 175.347656 204.394531 176.523438 203.054688 176.757812 201.347656 C 176.988281 199.640625 176.207031 198.035156 174.722656 197.164062 L 133.015625 172.636719 C 131.792969 171.917969 130.367188 171.722656 129 172.089844 C 127.632812 172.457031 126.492188 173.339844 125.792969 174.570312 L 101.9375 216.664062 C 101.089844 218.164062 101.214844 219.941406 102.269531 221.304688 C 103.324219 222.667969 105.011719 223.238281 106.679688 222.792969 L 121.269531 218.882812 C 128.519531 242.605469 147.015625 258.382812 166.011719 258.382812 C 168.945312 258.382812 171.894531 258.003906 174.816406 257.222656 C 181.621094 255.398438 187.761719 251.40625 192.570312 245.671875 C 192.792969 245.40625 192.863281 245.039062 192.75 244.707031 C 192.640625 244.378906 192.363281 244.128906 192.023438 244.054688 " fill-opacity="1" fill-rule="nonzero"/><path fill="#f9da78" d="M 246.675781 244.882812 C 266.203125 223.941406 269.070312 195.308594 253.101562 179.339844 C 248.464844 174.703125 242.699219 171.589844 235.96875 170.085938 C 235.601562 170.003906 235.226562 170.132812 234.984375 170.417969 C 234.746094 170.703125 234.683594 171.097656 234.828125 171.441406 C 244.375 194.625 223.023438 213.695312 218.890625 217.101562 L 208.304688 206.511719 C 207.089844 205.292969 205.339844 204.945312 203.742188 205.597656 C 202.144531 206.25 201.148438 207.726562 201.132812 209.449219 L 200.746094 257.832031 C 200.738281 259.25 201.28125 260.582031 202.28125 261.582031 C 203.273438 262.574219 204.585938 263.117188 205.988281 263.117188 C 206 263.117188 206.015625 263.117188 206.03125 263.117188 L 254.417969 262.730469 C 256.140625 262.714844 257.613281 261.71875 258.269531 260.121094 C 258.921875 258.527344 258.570312 256.78125 257.351562 255.558594 L 246.675781 244.882812 " fill-opacity="1" fill-rule="nonzero"/><path fill="#f9da78" d="M 243.3125 154.507812 C 243.679688 153.136719 243.484375 151.710938 242.765625 150.492188 L 218.238281 108.785156 C 217.363281 107.296875 215.757812 106.519531 214.054688 106.75 C 212.347656 106.984375 211.007812 108.160156 210.558594 109.824219 L 206.652344 124.410156 C 178.75 117.972656 152.523438 129.800781 146.679688 151.617188 C 144.851562 158.429688 145.242188 165.75 147.808594 172.792969 C 147.9375 173.144531 148.253906 173.394531 148.625 173.441406 C 148.988281 173.484375 149.359375 173.324219 149.574219 173.015625 C 162.429688 154.292969 190.980469 160.957031 196.457031 162.449219 L 192.609375 176.824219 C 192.164062 178.488281 192.734375 180.179688 194.09375 181.234375 C 194.859375 181.824219 195.753906 182.125 196.65625 182.125 C 197.363281 182.125 198.078125 181.941406 198.738281 181.566406 L 240.832031 157.710938 C 242.0625 157.011719 242.945312 155.875 243.3125 154.507812 " fill-opacity="1" fill-rule="nonzero"/></svg>